<?xml version="1.0" standalone="no"?>
<!DOCTYPE svg PUBLIC "-//W3C//DTD SVG 20010904//EN"
 "http://www.w3.org/TR/2001/REC-SVG-20010904/DTD/svg10.dtd">
<svg version="1.0" xmlns="http://www.w3.org/2000/svg"
 width="857.000000pt" height="857.000000pt" viewBox="0 0 857.000000 857.000000"
 preserveAspectRatio="xMidYMid meet">
<metadata>
Created by potrace 1.11, written by Peter Selinger 2001-2013
</metadata>
<g transform="translate(0.000000,857.000000) scale(0.100000,-0.100000)"
fill="#000000" stroke="none">
<path d="M4230 8408 c-6 -24 -13 -50 -16 -58 -15 -41 -121 -471 -150 -610 -22
-101 -64 -302 -69 -330 -3 -14 -7 -36 -10 -50 -8 -35 -82 -465 -90 -517 -3
-23 -8 -55 -10 -70 -2 -15 -6 -46 -10 -68 -22 -153 -26 -176 -40 -295 -7 -58
-15 -123 -20 -160 -2 -19 -7 -60 -10 -90 -3 -30 -8 -71 -10 -90 -2 -19 -7 -62
-10 -95 -3 -33 -8 -82 -10 -110 -10 -98 -16 -171 -20 -240 -3 -38 -7 -95 -10
-125 -3 -30 -8 -102 -11 -160 -3 -58 -7 -127 -9 -155 -25 -409 -25 -1422 0
-1800 2 -27 6 -104 10 -170 3 -66 8 -136 10 -155 2 -19 6 -78 10 -130 3 -52 8
-106 10 -120 2 -14 6 -62 10 -106 3 -45 7 -97 10 -115 2 -19 6 -63 10 -99 3
-36 8 -76 10 -90 2 -14 7 -52 10 -85 3 -33 8 -71 10 -85 2 -14 6 -52 10 -85 4
-32 8 -66 10 -75 1 -8 8 -58 15 -110 7 -52 14 -104 16 -115 2 -10 6 -37 9 -60
4 -22 8 -51 10 -65 12 -75 16 -97 20 -120 3 -14 7 -40 10 -57 10 -67 16 -100
26 -155 5 -32 12 -70 15 -85 2 -16 7 -39 9 -53 3 -14 8 -38 10 -55 5 -25 15
-77 20 -95 1 -3 5 -23 9 -45 5 -22 19 -89 32 -150 14 -60 27 -125 30 -143 6
-38 140 -573 154 -618 9 -28 15 -31 50 -31 36 0 41 3 50 32 6 18 12 41 14 51
2 10 21 81 41 158 20 76 38 145 40 155 2 9 12 54 23 101 20 83 67 291 76 340
3 14 18 93 35 175 16 83 32 161 34 175 8 39 19 103 23 125 6 28 52 312 59 360
3 23 7 50 9 60 2 11 7 45 11 75 3 30 8 66 10 80 5 30 13 94 20 153 3 23 8 53
10 67 2 14 7 57 11 95 3 39 8 77 9 86 2 9 6 52 10 95 4 43 9 87 11 97 2 10 6
55 9 100 4 45 8 100 10 122 3 22 7 76 10 120 3 44 7 103 10 130 4 46 7 91 20
315 20 335 26 1147 12 1515 -13 324 -22 497 -32 600 -3 28 -7 87 -10 132 -3
45 -7 101 -9 125 -6 52 -16 166 -22 228 -2 25 -6 65 -9 90 -3 25 -7 70 -10
101 -3 31 -7 65 -10 77 -2 11 -7 52 -10 89 -4 37 -9 77 -11 88 -4 22 -9 58
-24 175 -6 47 -13 96 -15 110 -3 14 -7 43 -10 65 -5 32 -63 378 -91 540 -4 26
-32 160 -38 190 -2 6 -6 28 -10 50 -17 89 -56 262 -106 470 -18 72 -33 137
-35 145 -6 29 -56 215 -66 248 -10 29 -14 32 -49 32 -38 0 -40 -2 -50 -42z"/>
<path d="M3845 8407 c-11 -12 -42 -47 -70 -78 -562 -622 -994 -1403 -1241
-2244 -20 -66 -37 -127 -39 -135 -2 -8 -13 -51 -25 -95 -11 -44 -23 -93 -26
-110 -3 -16 -11 -55 -19 -85 -24 -98 -57 -274 -80 -435 -4 -22 -8 -51 -10 -64
-3 -14 -7 -54 -11 -90 -3 -36 -7 -73 -9 -82 -2 -9 -6 -52 -10 -95 -3 -43 -8
-92 -10 -109 -2 -16 -7 -97 -11 -180 -14 -306 -6 -692 21 -935 3 -30 8 -77 10
-105 3 -27 7 -66 10 -85 2 -19 7 -55 10 -80 3 -25 8 -56 10 -70 2 -14 9 -56
15 -95 16 -103 55 -294 85 -420 15 -60 29 -121 31 -135 3 -14 11 -45 18 -70 8
-25 24 -79 36 -120 25 -86 117 -363 154 -462 79 -214 279 -641 368 -786 21
-34 38 -65 38 -67 0 -3 32 -57 71 -121 184 -300 419 -614 644 -857 47 -50 69
-67 89 -67 30 0 30 -3 -4 120 -17 60 -38 145 -45 180 -2 8 -10 42 -18 75 -9
33 -18 71 -21 85 -3 14 -17 77 -31 140 -22 97 -81 379 -90 430 -11 64 -16 88
-20 110 -6 32 -19 102 -45 260 -28 169 -28 169 -35 220 -3 25 -8 56 -10 70 -2
14 -7 45 -10 70 -3 25 -8 56 -10 70 -11 81 -15 110 -21 155 -3 28 -7 61 -9 75
-2 14 -7 57 -11 95 -3 39 -8 78 -10 87 -1 9 -6 48 -9 85 -4 37 -8 79 -10 92
-3 14 -7 61 -11 105 -3 45 -7 97 -9 116 -7 66 -22 259 -30 395 -25 403 -29
552 -29 1075 -1 467 5 779 18 980 3 36 8 112 11 170 17 274 25 379 40 515 2
22 7 72 10 110 4 39 8 81 10 95 7 53 16 127 19 170 4 46 14 125 22 170 2 14 6
50 9 80 4 30 8 62 10 70 2 8 7 42 10 75 4 33 8 67 10 75 4 13 11 61 40 255 3
22 8 47 10 55 2 8 7 33 10 55 3 23 7 52 10 65 3 14 8 41 11 60 3 19 17 93 31
164 14 71 27 139 29 150 25 135 131 594 174 755 16 62 30 115 30 117 0 2 -12
4 -27 4 -16 0 -37 -10 -48 -23z"/>
<path d="M4646 8403 c3 -16 10 -39 14 -53 10 -27 63 -246 105 -430 14 -63 30
-133 36 -155 9 -39 12 -50 25 -125 4 -19 9 -44 11 -55 12 -54 34 -164 39 -195
3 -19 14 -80 24 -135 11 -55 22 -116 25 -135 5 -31 11 -67 30 -177 3 -16 9
-62 15 -104 6 -41 12 -85 14 -96 3 -11 7 -44 11 -74 3 -30 8 -61 10 -69 2 -8
7 -40 10 -70 3 -30 8 -66 10 -80 2 -14 6 -52 10 -85 4 -32 8 -66 10 -75 1 -8
6 -46 9 -85 4 -38 9 -81 11 -95 3 -14 7 -53 9 -87 3 -33 7 -86 10 -117 15
-143 24 -255 31 -356 4 -69 8 -126 20 -325 15 -229 19 -450 19 -940 1 -482 -4
-691 -19 -945 -2 -36 -7 -108 -10 -160 -9 -157 -23 -348 -30 -415 -2 -22 -7
-69 -10 -105 -3 -36 -7 -85 -10 -110 -8 -79 -15 -144 -19 -180 -3 -19 -8 -64
-11 -100 -4 -36 -9 -73 -10 -82 -2 -9 -6 -44 -10 -77 -3 -33 -7 -68 -9 -78 -2
-10 -7 -43 -11 -73 -4 -30 -8 -62 -10 -70 -1 -8 -6 -37 -9 -65 -21 -146 -17
-123 -56 -355 -17 -102 -37 -216 -45 -255 -8 -38 -16 -83 -19 -100 -33 -187
-171 -785 -222 -962 -5 -20 -3 -23 21 -23 22 0 42 15 90 68 544 591 963 1320
1224 2127 92 284 182 653 221 910 6 39 13 81 15 95 2 14 7 48 10 75 4 28 8 62
11 77 4 28 8 59 19 188 4 41 9 89 11 105 21 207 21 842 0 1010 -3 17 -7 66
-11 110 -4 44 -8 91 -10 105 -2 14 -7 50 -10 80 -3 30 -11 84 -16 120 -6 36
-12 76 -14 90 -9 66 -34 209 -40 230 -2 8 -7 31 -10 50 -3 19 -22 103 -41 185
-227 958 -679 1846 -1290 2532 -49 54 -97 108 -108 121 -12 13 -31 22 -48 22
-26 0 -28 -3 -22 -27z"/>
<path d="M3349 8346 c-3 -3 -18 -7 -34 -10 -78 -14 -133 -40 -227 -107 -91
-64 -263 -197 -310 -239 -9 -8 -48 -42 -86 -75 -84 -72 -365 -355 -443 -445
-375 -434 -655 -893 -859 -1405 -69 -174 -166 -468 -184 -557 -3 -13 -14 -59
-25 -103 -24 -96 -57 -263 -66 -325 -3 -25 -8 -56 -10 -70 -7 -38 -13 -80 -20
-140 -4 -30 -9 -66 -11 -80 -26 -195 -26 -804 1 -1020 12 -97 28 -215 40 -295
4 -22 13 -74 22 -115 8 -41 17 -84 19 -95 16 -82 32 -146 80 -315 111 -393
269 -761 489 -1139 129 -221 360 -539 535 -736 127 -144 444 -447 571 -547 30
-23 56 -45 59 -48 10 -12 207 -158 260 -193 34 -22 86 -44 137 -56 85 -22 115
-26 98 -13 -27 19 -269 344 -370 497 -192 291 -414 711 -550 1040 -155 375
-324 944 -371 1250 -3 22 -8 43 -9 46 -2 3 -7 28 -11 55 -3 27 -7 51 -9 54 -2
3 -6 30 -9 60 -4 30 -9 66 -11 80 -8 42 -13 83 -20 140 -3 30 -8 66 -10 80 -2
14 -7 61 -10 105 -4 44 -9 94 -10 110 -25 242 -25 904 0 1090 2 17 7 62 10
100 6 81 12 129 26 240 16 128 19 146 34 230 8 44 17 96 20 115 13 84 40 206
76 355 22 88 42 167 43 175 23 100 147 477 208 635 91 232 250 575 342 735 14
25 29 52 33 60 49 109 363 584 486 736 9 11 38 47 67 82 40 49 47 62 32 62
-10 0 -21 -2 -23 -4z"/>
<path d="M5233 8273 c377 -460 732 -1094 953 -1702 70 -191 186 -570 209 -680
2 -9 13 -59 25 -111 37 -165 78 -387 95 -510 3 -25 8 -56 10 -70 2 -14 7 -50
10 -80 3 -30 8 -66 10 -80 2 -14 7 -56 10 -95 3 -38 7 -90 10 -115 28 -320 24
-907 -9 -1195 -3 -27 -8 -79 -12 -115 -3 -36 -7 -72 -9 -80 -1 -8 -6 -42 -9
-75 -4 -33 -11 -82 -16 -110 -5 -27 -12 -66 -14 -85 -10 -61 -32 -183 -50
-275 -165 -816 -537 -1676 -1015 -2345 -94 -131 -197 -266 -233 -305 -15 -16
-24 -31 -19 -33 5 -2 47 6 93 18 89 22 114 37 303 178 290 218 592 506 820
783 29 34 99 122 107 134 4 5 18 24 31 40 230 295 491 759 642 1145 115 293
229 707 269 975 2 11 6 40 10 65 10 62 13 85 21 160 4 36 9 72 10 80 19 102
27 669 12 840 -4 47 -9 105 -11 130 -7 77 -17 164 -21 180 -2 8 -7 42 -11 75
-3 33 -8 62 -9 65 -2 3 -6 26 -10 50 -3 25 -20 106 -36 180 -17 74 -32 145
-35 158 -2 13 -24 92 -49 175 -37 131 -62 204 -140 417 -62 167 -228 505 -345
700 -356 592 -833 1105 -1400 1501 -50 35 -86 51 -152 67 -48 12 -92 22 -98
22 -6 0 18 -35 53 -77z"/>
<path d="M2215 7900 c-27 -16 -59 -33 -70 -38 -34 -16 -265 -171 -361 -242
-215 -159 -516 -443 -685 -645 -360 -431 -614 -886 -782 -1400 -40 -123 -97
-331 -111 -405 -3 -14 -10 -50 -15 -80 -6 -30 -13 -66 -16 -80 -3 -13 -7 -42
-10 -65 -3 -22 -8 -51 -10 -65 -12 -68 -22 -152 -32 -275 -14 -179 -7 -657 11
-775 3 -14 7 -52 11 -85 4 -32 9 -68 11 -80 2 -11 7 -40 10 -65 3 -25 8 -53
10 -62 3 -10 7 -30 10 -45 2 -16 11 -59 20 -98 9 -38 17 -77 19 -85 38 -179
148 -506 240 -715 51 -115 166 -338 227 -439 264 -438 555 -774 965 -1117 147
-122 559 -399 594 -399 5 0 -18 26 -49 58 -211 216 -510 594 -637 804 -5 9
-40 65 -76 125 -102 167 -203 357 -263 493 -16 36 -39 88 -52 115 -100 217
-267 731 -300 920 -2 17 -7 37 -9 45 -9 29 -54 275 -59 325 -3 28 -8 59 -10
70 -2 11 -7 49 -11 85 -3 36 -8 76 -10 90 -20 136 -27 713 -12 895 13 150 35
334 57 465 14 86 18 103 24 130 3 14 8 36 10 50 2 14 12 58 21 99 9 40 18 78
19 85 16 74 88 318 130 441 205 600 524 1167 926 1646 71 85 231 259 280 306
25 24 43 43 40 43 -3 0 -27 -14 -55 -30z"/>
<path d="M6360 7865 c30 -32 62 -65 70 -74 161 -178 166 -184 236 -271 353
-438 630 -921 819 -1430 90 -244 174 -532 219 -750 18 -89 25 -130 46 -265 6
-38 13 -81 15 -95 3 -22 8 -60 20 -165 3 -27 13 -153 21 -265 4 -57 4 -480 0
-540 -9 -137 -24 -303 -31 -350 -3 -19 -8 -53 -11 -75 -107 -777 -375 -1486
-810 -2146 -164 -249 -380 -518 -582 -726 -76 -78 -82 -89 -41 -64 18 11 48
28 64 37 94 52 388 253 452 309 6 5 26 21 44 35 109 83 367 328 507 483 148
162 363 459 486 671 182 311 361 746 430 1044 2 9 13 53 25 97 11 44 23 96 26
115 3 19 10 58 15 85 15 76 26 148 35 225 4 30 8 66 10 80 26 177 26 719 0
900 -2 14 -7 50 -10 80 -15 122 -23 167 -46 285 -127 629 -379 1190 -765 1700
-45 61 -91 119 -101 130 -10 12 -42 50 -72 85 -73 87 -380 390 -472 466 -64
52 -131 104 -279 214 -49 37 -298 194 -340 215 -33 16 -32 15 20 -40z"/>
</g>
</svg>
